HIERARCHY
ROOT Hips
{
	OFFSET 0.000000 8.830580 0.000000
	CHANNELS 6 Xposition Yposition Zposition Zrotation Yrotation Xrotation 
	JOINT Spine
	{
		OFFSET 0.000000 0.010000 0.000000
		CHANNELS 3 Zrotation Yrotation Xrotation
		JOINT Spine1
		{
			OFFSET 0.000000 2.459130 0.000000
			CHANNELS 3 Zrotation Yrotation Xrotation
			JOINT Neck
			{
				OFFSET 0.000000 2.484630 0.000000
				CHANNELS 3 Zrotation Yrotation Xrotation
				JOINT Head_virtual
				{
					OFFSET 0.000000 0.000000 0.000000
					CHANNELS 3 Zrotation Yrotation Xrotation
					JOINT Head
					{
						OFFSET 0.000000 0.927525 0.000000
						CHANNELS 3 Zrotation Yrotation Xrotation
						End Site
						{
							OFFSET 0.000000 0.000000 0.000000
						}
					}
				}
				JOINT LeftUpArm_virtual
				{
					OFFSET 0.000000 0.000000 0.000000
					CHANNELS 3 Zrotation Yrotation Xrotation
					JOINT LeftUpArm
					{
						OFFSET 1.248820 0.000000 0.000000
						CHANNELS 3 Zrotation Yrotation Xrotation
						JOINT LeftForeArm
						{
							OFFSET 2.597580 0.000000 0.000000
							CHANNELS 3 Zrotation Yrotation Xrotation
							JOINT LeftHand
							{
								OFFSET 2.455420 0.000000 0.000000
								CHANNELS 3 Zrotation Yrotation Xrotation
								End Site
								{
									OFFSET 0.000000 0.000000 0.000000
								}
							}
						}
					}
				}
				JOINT RightUpArm_virtual
				{
					OFFSET -0.000000 -0.000000 -0.000000
					CHANNELS 3 Zrotation Yrotation Xrotation
					JOINT RightUpArm
					{
						OFFSET -1.248820 -0.000000 -0.000000
						CHANNELS 3 Zrotation Yrotation Xrotation
						JOINT RightForeArm
						{
							OFFSET -2.597580 -0.000000 -0.000000
							CHANNELS 3 Zrotation Yrotation Xrotation
							JOINT RightHand
							{
								OFFSET -2.455420 -0.000000 -0.000000
								CHANNELS 3 Zrotation Yrotation Xrotation
								End Site
								{
									OFFSET 0.000000 0.000000 0.000000
								}
							}
						}
					}
				}
			}
		}
	}
	JOINT LeftUpLeg
	{
		OFFSET 1.271939 0.000000 0.000000
		CHANNELS 3 Zrotation Yrotation Xrotation
		JOINT LeftLowLeg
		{
			OFFSET 0.000000 -4.342910 0.000000
			CHANNELS 3 Zrotation Yrotation Xrotation
			JOINT LeftFoot
			{
				OFFSET 0.000000 -4.487670 0.000000
				CHANNELS 3 Zrotation Yrotation Xrotation
				JOINT LeftToeBase
				{
					OFFSET 0.000000 0.000000 1.515070
					CHANNELS 3 Zrotation Yrotation Xrotation
					End Site
					{
						OFFSET 0.000000 0.000000 0.000000
					}
				}
			}
		}
	}
	JOINT RightUpLeg
	{
		OFFSET -1.271939 0.000000 0.000000
		CHANNELS 3 Zrotation Yrotation Xrotation
		JOINT RightLowLeg
		{
			OFFSET 0.000000 -4.342910 0.000000
			CHANNELS 3 Zrotation Yrotation Xrotation
			JOINT RightFoot
			{
				OFFSET 0.000000 -4.487670 0.000000
				CHANNELS 3 Zrotation Yrotation Xrotation
				JOINT RightToeBase
				{
					OFFSET 0.000000 0.000000 1.515070
					CHANNELS 3 Zrotation Yrotation Xrotation
					End Site
					{
						OFFSET 0.000000 0.000000 0.000000
					}
				}
			}
		}
	}
}
MOTION
Frames: 10
Frame Time: 0.041667
-18.795066 9.147380 46.444591 -174.576221 4.565117 -175.830818 2.961753 0.583210 -7.546053 4.445485 0.857968 -8.030796 0.000000 0.000000 0.000000 -6.294189 -5.509809 30.405634 13.919348 6.756776 -85.815254 -25.778700 12.020200 -11.716100 17.901300 -15.003400 -23.413700 0.000000 -6.953310 0.000000 18.396299 14.891200 38.426800 21.271200 -6.436180 -6.077090 -14.232200 2.041850 -54.571800 0.000000 15.174600 0.000000 -27.850401 -20.674700 60.644001 2.298652 3.822594 -2.677601 0.000000 0.000000 8.962810 -13.906525 8.872640 -0.888331 0.000000 0.000000 -29.754600 6.426150 0.591067 -3.706538 0.000000 0.000000 11.345700 15.724438 -12.574483 4.569632 0.000000 0.000000 -36.979000 
-18.797795 9.148224 46.447051 -174.572729 4.486529 -175.735530 2.946647 0.561968 -7.524014 4.482280 0.838423 -8.020204 0.000000 0.000000 0.000000 -6.345117 -5.428081 30.418648 13.903817 6.733840 -85.842197 -25.818701 11.957400 -11.765500 17.842400 -14.976300 -23.445400 0.000000 -6.578320 0.000000 18.385099 14.849900 38.330601 21.234600 -6.443670 -6.090480 -14.172800 1.987670 -54.700802 0.000000 15.210700 0.000000 -27.794399 -20.619101 60.775200 2.288116 3.837796 -2.769225 0.000000 0.000000 8.893660 -13.881670 8.787770 -0.807480 0.000000 0.000000 -29.794100 6.423856 0.593150 -3.663197 0.000000 0.000000 11.053600 15.717414 -12.677873 4.639657 0.000000 0.000000 -36.949100 
-18.800680 9.148957 46.450675 -174.566185 4.406263 -175.624816 2.951940 0.530317 -7.463152 4.474032 0.807795 -8.060747 0.000000 0.000000 0.000000 -6.338696 -5.446572 30.365822 13.807666 6.740041 -85.858793 -25.829000 11.956100 -11.771900 17.774900 -14.930200 -23.514799 0.000000 -6.388940 0.000000 18.308399 14.951800 38.390701 21.217400 -6.505200 -6.184120 -14.109600 2.031820 -54.619900 0.000000 15.288900 0.000000 -27.783701 -20.819401 60.715500 2.277856 3.847892 -2.890712 0.000000 0.000000 8.839450 -13.842621 8.724594 -0.729239 0.000000 0.000000 -29.800000 6.422358 0.598240 -3.680631 0.000000 0.000000 10.841000 15.722330 -12.765738 4.689261 0.000000 0.000000 -36.882401 
-18.803826 9.149242 46.455106 -174.567477 4.332418 -175.492901 2.958989 0.509010 -7.388123 4.441455 0.791672 -8.180676 0.000000 0.000000 0.000000 -6.342590 -5.424690 30.340804 13.723780 6.723905 -85.785696 -25.798700 11.917200 -11.748600 17.681601 -14.828200 -23.340799 0.000000 -6.335330 0.000000 18.353701 15.256900 38.755501 21.213499 -6.501760 -6.255110 -14.099600 1.961150 -54.405201 0.000000 15.309000 0.000000 -27.655100 -20.927200 60.535099 2.257253 3.848913 -3.031303 0.000000 0.000000 8.773860 -13.813128 8.670549 -0.662168 0.000000 0.000000 -29.829400 6.413048 0.706314 -3.757186 0.000000 0.000000 10.685400 15.740310 -12.931295 4.697182 0.000000 0.000000 -36.868401 
-18.807906 9.149532 46.459765 -174.571042 4.313718 -175.361891 2.979688 0.519436 -7.301292 4.378828 0.804447 -8.284692 0.000000 0.000000 0.000000 -6.346059 -5.362419 30.324300 13.652663 6.752567 -85.780149 -25.762400 11.915500 -11.747800 17.586700 -14.771800 -23.216700 0.000000 -6.269670 0.000000 18.318399 15.343800 38.768902 21.194500 -6.577950 -6.253370 -14.091400 1.853820 -53.567402 0.000000 15.348500 0.000000 -27.417400 -21.244900 59.698101 2.226045 3.851265 -3.129624 0.000000 0.000000 8.642940 -13.768115 8.667784 -0.585993 0.000000 0.000000 -29.829000 6.391248 0.844518 -3.830507 0.000000 0.000000 10.517700 15.736609 -13.087478 4.716064 0.000000 0.000000 -36.810900 
-18.812076 9.149945 46.464253 -174.557516 4.306445 -175.232834 2.988673 0.515938 -7.214164 4.366844 0.805119 -8.400025 0.000000 0.000000 0.000000 -6.364666 -5.249436 30.302325 13.609938 6.768554 -85.736548 -25.747601 11.977700 -11.709200 17.504499 -14.756500 -23.309799 0.000000 -6.196220 0.000000 18.432699 15.325700 38.733398 21.174999 -6.518570 -6.142330 -14.075700 1.698000 -53.570202 0.000000 15.375900 0.000000 -27.349701 -21.214001 59.528702 2.215800 3.844434 -3.197402 0.000000 0.000000 8.469390 -13.765777 8.645058 -0.513433 0.000000 0.000000 -29.849300 6.377290 0.871352 -3.899312 0.000000 0.000000 10.347500 15.742998 -13.111342 4.790052 0.000000 0.000000 -36.835400 
-18.815410 9.150560 46.468334 -174.549728 4.344483 -175.134264 2.955631 0.523338 -7.113488 4.394433 0.822888 -8.495223 0.000000 0.000000 0.000000 -6.400478 -5.096331 30.300617 13.581338 6.789345 -85.717667 -25.767700 12.014600 -11.744200 17.484400 -14.724200 -23.349300 0.000000 -6.137600 0.000000 18.298100 15.318300 38.498199 21.180700 -6.517340 -6.182400 -14.103000 1.732690 -53.600498 0.000000 15.277200 0.000000 -27.378700 -21.056999 59.494701 2.198326 4.115582 -3.259945 0.000000 0.000000 8.359900 -13.702062 8.447709 -0.398625 0.000000 0.000000 -29.940600 6.360824 0.773653 -3.994725 0.000000 0.000000 10.285700 15.685240 -13.008979 4.880553 0.000000 0.000000 -36.853201 
-18.819534 9.150794 46.472772 -174.549139 4.411224 -175.020534 2.933324 0.556985 -7.028204 4.403607 0.864739 -8.579205 0.000000 0.000000 0.000000 -6.448914 -4.925336 30.269613 13.554170 6.790827 -85.687714 -25.731400 12.008100 -11.851900 17.371799 -14.665500 -23.282499 0.000000 -6.168600 0.000000 18.222799 15.353800 38.286201 21.153799 -6.577870 -6.222840 -14.106400 1.803400 -53.415199 0.000000 15.175200 0.000000 -27.378300 -21.007401 59.445702 2.166609 4.085057 -3.297748 0.000000 0.000000 8.182950 -13.675821 8.520578 -0.332874 0.000000 0.000000 -29.985600 6.328937 0.722122 -4.119108 0.000000 0.000000 10.243800 15.641130 -12.910397 4.955268 0.000000 0.000000 -36.869400 
-18.823884 9.150878 46.477552 -174.533455 4.505853 -174.893774 2.937016 0.604551 -6.963200 4.383586 0.915600 -8.649503 0.000000 0.000000 0.000000 -6.471963 -4.795258 30.226738 13.490961 6.807603 -85.643138 -25.707300 12.016200 -11.777100 17.351400 -14.605500 -23.335800 0.000000 -6.175820 0.000000 18.228600 15.374800 38.316502 21.138599 -6.567630 -6.136130 -14.075200 1.763750 -53.612099 0.000000 15.249500 0.000000 -27.415701 -21.196699 59.795799 2.144869 4.137803 -3.370937 0.000000 0.000000 8.055600 -13.642170 8.550181 -0.291034 0.000000 0.000000 -30.028800 6.312383 0.835333 -4.253613 0.000000 0.000000 10.192000 15.638380 -12.954501 4.999661 0.000000 0.000000 -37.197100 
-18.827855 9.150984 46.481980 -174.535313 4.574356 -174.825178 2.886526 0.618677 -6.849591 4.410764 0.941246 -8.708474 0.000000 0.000000 0.000000 -6.497929 -4.661389 30.179267 13.356020 6.838420 -85.634991 -25.711901 12.056200 -11.708500 17.376600 -14.592300 -23.256399 0.000000 -6.135680 0.000000 18.250401 15.359900 38.334400 21.092699 -6.538170 -6.213470 -14.005900 1.774650 -53.533401 0.000000 15.272900 0.000000 -27.475100 -21.238899 59.714901 2.111669 4.117413 -3.419206 0.000000 0.000000 7.987080 -13.626180 8.614691 -0.276924 0.000000 0.000000 -29.989100 6.285764 0.859417 -4.336409 0.000000 0.000000 10.159800 15.556736 -12.936290 5.050196 0.000000 0.000000 -36.845400 
